PathFileType	4	(X/Y/Z)	S01_0018_Gait_markers.trc
DataRate	CameraRate	NumFrames	NumMarkers	Units	OrigDataRate	OrigDataStartFrame	OrigNumFrames
250.000000	250.000000	4	54	mm	250.000000	181	363
Frame#	Time	HEAD_ANT			R_HEAD			L_HEAD			C7			R_BACK			L_BACK			STERNUM			R_ACROMION			R_HUM_PROX			R_HUM_ANT			R_HUM_POST			R_ELBOW_LAT			R_ELBOW_MED			R_FOREARM			R_WIRST_LAT			R_WRITS_MED			R_HAND			L_ACROMION			L_HUM_PROX			L_HUM_ANT			L_HUM_POST			L_ELBOW_LAT			L_ELBOW_MED			L_FOREARM			L_WRIST_LAT			L_WIRST_MED			L_HAND			R_ILIAC			SACRUM			L_ILIAC			R_GTROCH			R_THIGH__1			R_THIGH_2			R_THIGH_3			R_THIGH_4			R_SHANK_1			R_SHANK_2			R_SHANK_3			R_SHANK_4			R_HEEL			R_FOOT_LAT			R_FOOT_MED			L_GTROCH			L_THIGH_1			L_THIGH_2			L_THIGH_3			L_THIGH_4			L_SHANK_1			L_SHANK_2			L_SHANK_3			L_SHANK_4			L_HEEL			L_FOOT_LAT			L_FOOT_MED			
		X1	Y1	Z1	X2	Y2	Z2	X3	Y3	Z3	X4	Y4	Z4	X5	Y5	Z5	X6	Y6	Z6	X7	Y7	Z7	X8	Y8	Z8	X9	Y9	Z9	X10	Y10	Z10	X11	Y11	Z11	X12	Y12	Z12	X13	Y13	Z13	X14	Y14	Z14	X15	Y15	Z15	X16	Y16	Z16	X17	Y17	Z17	X18	Y18	Z18	X19	Y19	Z19	X20	Y20	Z20	X21	Y21	Z21	X22	Y22	Z22	X23	Y23	Z23	X24	Y24	Z24	X25	Y25	Z25	X26	Y26	Z26	X27	Y27	Z27	X28	Y28	Z28	X29	Y29	Z29	X30	Y30	Z30	X31	Y31	Z31	X32	Y32	Z32	X33	Y33	Z33	X34	Y34	Z34	X35	Y35	Z35	X36	Y36	Z36	X37	Y37	Z37	X38	Y38	Z38	X39	Y39	Z39	X40	Y40	Z40	X41	Y41	Z41	X42	Y42	Z42	X43	Y43	Z43	X44	Y44	Z44	X45	Y45	Z45	X46	Y46	Z46	X47	Y47	Z47	X48	Y48	Z48	X49	Y49	Z49	X50	Y50	Z50	X51	Y51	Z51	X52	Y52	Z52	X53	Y53	Z53	X54	Y54	Z54	

182	0.724	1097.364135742188	1705.32421875	-351.8175048828121	1042.164428710938	1655.032958984375	-270.6698608398434	1035.27392578125	1654.948974609375	-418.2846984863278	905.322021484375	1485.540771484375	-334.6097412109372	833.7393798828125	1293.46875	-258.093811035156	825.9608764648438	1292.452758789062	-392.7257690429685	1080.626342773438	1319.82763671875	-343.9615478515622	995.5758056640625	1435.9345703125	-168.2252044677731	978.9541015625	1277.857177734375	-74.20354461669893	1044.817138671875	1195.551635742188	-83.47962951660129	927.843017578125	1191.936645507812	-48.8922271728513	984.2836303710938	1086.96533203125	-51.64324569702124	941.2734375	1078.551147460938	-123.5586090087888	1118.428588867188	929.3890991210938	-93.87501525878885	1158.203491210938	876.79541015625	-148.6848907470701	1110.8076171875	836.5675048828125	-96.08570861816388	1198.016967773438	794.071533203125	-102.679733276367	970.9251098632812	1434.781372070312	-507.530853271484	924.06884765625	1268.14794921875	-594.4014892578123	977.3751220703125	1181.561157226563	-601.145080566406	852.6010131835938	1196.369140625	-608.3976440429685	897.8079833984375	1087.308227539063	-622.0760498046873	855.7362670898438	1086.603515625	-557.5346069335935	977.8487548828125	897.3469238281251	-625.7179565429685	1007.023559570312	830.5366821289064	-579.805725097656	950.001220703125	819.6469726562501	-636.4369506835935	1014.344604492188	747.3521118164064	-630.1159057617186	969.5588989257812	1038.597412109375	-156.7272033691404	841.6849365234375	1011.679809570313	-327.2145080566404	956.09521484375	1027.331787109375	-503.7509765624998	901.7403564453125	904.859619140625	-141.7807312011717	854.0565795898438	638.02685546875	-162.7263336181639	912.554443359375	636.5651245117188	-156.6369323730467	886.2689819335938	536.9109497070312	-188.6678314208983	826.980712890625	562.193359375	-182.3397064208983	698.4552001953125	375.2944335937501	-173.6087799072265	731.3843383789062	327.8287658691407	-189.6764984130859	679.3673706054688	260.4851379394532	-207.7074584960937	631.1619873046875	299.9740600585938	-195.1720123291015	477.6852111816406	158.9757690429688	-269.8948669433593	589.2048950195312	27.86656761169438	-206.9163818359375	641.8950805664062	29.00167655944831	-306.7064514160156	941.9017944335938	918.9645996093751	-508.5900268554685	1133.33740234375	680.3164672851564	-492.0891113281248	1077.212524414062	675.7113647460939	-510.2746276855467	1103.392456054688	576.5812377929689	-478.0600585937499	1159.484375	605.5446166992189	-466.3350524902343	1207.99609375	337.818817138672	-470.4176025390624	1157.030639648438	304.5542297363282	-473.5582275390624	1172.856689453125	219.5626525878907	-459.3338317871093	1233.317260742188	239.732635498047	-450.9662475585937	1168.476318359375	35.21253204345712	-393.9500427246094	1347.450439453125	31.11309623718272	-456.1146240234375	1379.259155273438	56.2522506713868	-359.9880676269531	
183	0.728	1103.130126953125	1705.946899414062	-352.6905822753902	1048.144775390625	1655.714111328125	-271.6430664062497	1041.2880859375	1655.489990234375	-419.0654907226559	911.4773559570312	1486.121826171875	-335.461517333984	839.9596557617188	1293.539794921875	-259.0251770019528	832.1715698242188	1292.844116210938	-393.3408203124997	1086.950561523438	1320.392578125	-344.896545410156	1001.760070800781	1436.276611328125	-168.9668579101559	984.55078125	1278.110473632812	-75.23731231689425	1050.506469726562	1195.7177734375	-84.03656768798801	933.3540649414062	1192.261962890625	-49.95728683471653	989.75537109375	1087.120971679688	-52.87845230102515	947.138916015625	1078.757568359375	-124.6023330688474	1123.234130859375	928.6920166015625	-94.02476501464822	1162.904418945312	875.7799682617188	-148.4621582031248	1115.02978515625	836.1983032226562	-96.13763427734357	1202.026489257812	793.0114135742188	-102.144088745117	977.0765380859375	1434.869750976562	-508.5336303710934	930.3359375	1268.056030273438	-594.961975097656	983.755859375	1181.728759765625	-601.7999267578123	858.909912109375	1196.108642578125	-608.6245117187498	904.3457641601562	1087.027709960938	-622.247863769531	862.4295043945312	1086.34130859375	-557.5722045898435	983.9077758789062	897.0803222656251	-625.9765014648435	1012.822082519531	830.1190795898439	-580.1772460937498	955.8078002929688	819.3995361328126	-636.6843261718748	1020.029479980469	746.7504882812501	-630.9791870117186	976.794189453125	1038.226318359375	-157.3697052001951	848.025146484375	1012.116455078125	-327.4281005859373	961.8509521484375	1027.799072265625	-504.5081481933591	908.41943359375	904.1531372070312	-142.2369079589842	862.0291137695312	637.2394409179688	-163.4442291259764	920.5247802734375	635.9523315429688	-157.6280364990233	894.8322143554688	536.14404296875	-189.1879272460936	835.3761596679688	561.25830078125	-182.9604492187499	705.724609375	376.1387939453126	-173.4693298339843	737.9916381835938	328.1376953125001	-189.3039398193359	685.0529174804688	261.4662780761719	-207.1611785888671	637.4913330078125	302.0353088378907	-194.3522338867187	481.5969543457031	163.5919189453126	-268.3016967773437	590.2766723632812	28.76312637329106	-206.9497680664062	642.0979614257812	28.99149703979499	-306.7792663574219	948.8409423828125	920.3801879882814	-508.9897460937498	1140.598388671875	681.8643188476564	-491.9371337890623	1084.432739257812	677.4935302734376	-510.1569519042967	1111.191650390625	577.9351196289064	-478.8497619628905	1167.06689453125	607.1671142578126	-466.6442871093749	1213.668212890625	337.8039855957032	-470.6103515624999	1162.040161132812	305.2972412109376	-474.7160034179687	1176.278686523438	220.2838897705079	-460.7761535644531	1236.923828125	239.1327514648439	-450.7058715820312	1168.886840820312	35.63746643066415	-394.18310546875	1347.993896484375	28.9268856048585	-455.7481689453125	1379.74755859375	53.73546600341805	-359.4176635742188	
184	0.732	1108.825805664062	1706.414916992188	-353.737640380859	1053.880737304688	1656.332641601562	-272.6348266601559	1047.054931640625	1655.957885742188	-420.1566162109372	917.749755859375	1486.680786132812	-336.2341613769528	846.0908203125	1293.693359375	-259.8707885742185	838.33349609375	1293.136352539062	-394.2070617675778	1093.130981445312	1320.913940429688	-345.5905151367185	1007.906188964844	1436.6923828125	-169.4735565185544	990.3303833007812	1278.28857421875	-76.04441833496065	1056.20947265625	1195.990234375	-84.60660552978489	938.878662109375	1192.62939453125	-51.15280914306614	994.9979858398438	1087.2373046875	-53.91268920898413	952.6129150390625	1079.087646484375	-125.9637451171873	1128.004638671875	928.244873046875	-94.08817291259744	1167.447509765625	875.0094604492188	-148.1962432861326	1119.21142578125	835.737060546875	-96.09806060790997	1206.293090820312	792.1602172851562	-101.8951416015623	983.32373046875	1435.077880859375	-509.2014770507809	936.5891723632812	1268.017211914063	-595.3587646484373	990.2467651367188	1181.87646484375	-602.2255859374998	865.3641357421875	1195.901733398438	-608.9302978515623	910.93701171875	1087.167358398438	-622.435119628906	869.1823120117188	1086.224487304688	-558.356994628906	989.89794921875	896.9005126953126	-626.3043823242185	1018.599670410156	829.7404174804689	-580.5539550781248	961.6300048828125	819.3653564453126	-637.0699462890623	1025.782958984375	746.5017089843751	-631.4267578124999	983.6906127929688	1038.279541015625	-157.8331298828123	854.4141235351562	1012.459899902344	-327.5690002441404	968.1842041015625	1028.322998046875	-505.3974609374998	915.0916137695312	903.537841796875	-142.8229064941404	870.2437133789062	636.3851318359375	-164.1580505371092	928.8887939453125	635.5407104492188	-158.376266479492	903.6702880859375	535.5393676757812	-189.7780303955077	843.751953125	560.2409057617188	-183.6499176025389	713.0322265625	377.1356506347657	-173.2871856689452	744.7024536132812	328.6281433105469	-188.9913024902343	691.034912109375	262.4503173828126	-206.5605163574218	644.0673217773438	303.8693237304688	-193.6983947753906	486.8117370605469	167.9499053955079	-267.5300903320312	591.5418090820312	29.64988327026372	-206.9401397705078	642.307861328125	28.98265457153327	-306.8172912597656	955.578125	921.9230957031251	-509.3171386718748	1148.03125	683.4266967773439	-491.6401977539061	1091.728149414062	678.4831542968751	-510.1098022460936	1118.840087890625	579.1285400390626	-479.3482666015624	1174.559448242188	608.4985961914064	-466.903839111328	1218.687255859375	337.5432128906251	-470.6141967773437	1167.06787109375	305.5601501464845	-475.7932128906249	1179.624145507812	220.2044830322267	-461.0530700683593	1240.349853515625	238.4372558593751	-450.4585876464843	1169.456665039062	36.13271331787118	-394.1732482910156	1348.48291015625	27.00081825256358	-455.3777465820312	1380.264038085938	51.13458251953133	-358.9364318847656	
185	0.736	1114.570922851562	1706.970825195312	-354.5941467285152	1059.590942382812	1656.818603515625	-273.4950866699215	1052.717163085938	1656.338256835938	-420.9673156738278	923.988525390625	1487.18505859375	-336.9943542480465	852.1795654296875	1293.91650390625	-260.5478515624997	844.4664916992188	1293.27099609375	-394.857238769531	1099.403686523438	1321.515502929688	-346.2346191406247	1014.066589355469	1437.237426757812	-170.1399230957028	995.9887084960938	1278.642944335938	-76.97689056396456	1061.879272460938	1196.328857421875	-85.1243820190427	944.3901977539062	1192.899169921875	-52.46994018554661	1000.259216308594	1087.710205078125	-54.81219482421851	958.508056640625	1079.59814453125	-127.1756439208982	1132.587890625	927.6092529296875	-94.29650115966777	1171.94189453125	874.1422729492188	-147.9789276123045	1123.304077148438	835.2774047851562	-96.04236602783185	1210.021118164062	791.1520385742188	-101.262481689453	989.5170288085938	1435.582275390625	-509.9899902343747	942.8759765625	1268.214965820313	-595.8648681640623	996.7440185546875	1182.132080078125	-602.6932373046873	871.7164916992188	1195.89306640625	-609.1267089843748	917.5879516601562	1087.1181640625	-622.680969238281	875.6957397460938	1086.535888671875	-557.9349975585935	996.0655517578125	896.8230590820314	-626.6166381835935	1024.687377929688	829.5698852539064	-581.0123291015623	967.6297607421875	819.3007202148439	-637.420715332031	1031.405151367188	746.3497314453126	-631.8223266601561	991.0354614257812	1038.192749023438	-158.4871673583982	860.7492065429688	1012.812438964844	-327.8555908203123	974.3753662109375	1029.279174804688	-505.8973693847654	921.7752075195312	903.063720703125	-143.3421020507811	878.7153930664062	635.5182495117188	-164.8173370361327	937.3742065429688	635.1913452148438	-159.2157897949217	912.6676025390625	534.8043212890625	-190.0573272705077	852.8302612304688	559.2330932617188	-184.1322631835936	720.582275390625	378.1320800781251	-172.9289093017577	751.76171875	329.2464599609376	-188.4078216552734	697.1995239257812	263.5808410644532	-205.6842956542968	650.818115234375	305.6934509277344	-193.619400024414	492.4821472167969	172.3107147216797	-266.5842590332031	592.802734375	30.59183692932134	-207.0231628417969	642.4986572265625	29.0446739196778	-306.8086547851562	962.2658081054688	923.3425292968751	-509.7062377929685	1155.236328125	684.6475830078126	-491.5523376464842	1099.557250976562	679.9218139648439	-511.2154235839842	1126.359497070312	580.3553466796876	-480.3711547851561	1181.944946289062	610.0849609375001	-466.9570312499999	1223.746826171875	337.1275634765626	-470.7654724121093	1171.642456054688	305.9008789062501	-476.7337951660156	1183.016479492188	220.5716705322267	-462.3988647460937	1243.7333984375	237.8771362304689	-450.5109863281249	1170.192016601562	36.74732971191415	-394.2644958496094	1349.07958984375	25.47876167297373	-455.4431762695312	1381.007446289062	48.50180816650398	-358.4878845214844	
